<svg width="18" height="21" viewBox="0 0 18 21" fill="none" xmlns="http://www.w3.org/2000/svg">
    <path fill-rule="evenodd" clip-rule="evenodd" d="M5.13776 20.0791C4.72576 20.0791 4.33476 20.0471 3.96676 19.9841L3.74876 19.9431C1.37776 19.4501 -0.000244141 17.6341 -0.000244141 14.8701V5.2881C-0.000244141 4.9541 0.0197559 4.6341 0.0597559 4.3281C0.408756 1.6431 2.25376 0.0791016 5.13776 0.0791016H12.8628C16.0588 0.0791016 17.9698 1.9991 17.9998 5.2111V5.2881V14.8701C17.9998 18.1271 16.0838 20.0791 12.8628 20.0791H5.13776ZM5.13776 1.5361C2.68176 1.5361 1.43676 2.7991 1.43676 5.2881V14.8701C1.43676 17.3591 2.68176 18.6221 5.13776 18.6221H12.8538C15.3088 18.6221 16.5458 17.3591 16.5458 14.8701V5.2881C16.5458 2.7991 15.3088 1.5361 12.8538 1.5361H5.13776ZM13.3058 14.3131C13.3058 13.9131 12.9868 13.5891 12.5928 13.5891H5.38176C4.98776 13.5891 4.66776 13.9131 4.66776 14.3131C4.66776 14.7131 4.98776 15.0371 5.38176 15.0371H12.5928C12.9868 15.0371 13.3058 14.7131 13.3058 14.3131ZM12.5928 9.3501C12.8678 9.3201 13.1368 9.4521 13.2838 9.6891C13.4308 9.9281 13.4308 10.2301 13.2838 10.4691C13.1368 10.7061 12.8678 10.8381 12.5928 10.8081H5.38176C5.01576 10.7661 4.73876 10.4531 4.73876 10.0791C4.73876 9.7051 5.01576 9.3911 5.38176 9.3501H12.5928ZM8.77676 5.8501C8.77676 5.4761 8.49976 5.1621 8.13376 5.1211H5.39076C5.02376 5.1621 4.74676 5.4761 4.74676 5.8501C4.74676 6.2231 5.02376 6.5371 5.39076 6.5781H8.13376C8.49976 6.5371 8.77676 6.2231 8.77676 5.8501Z" fill="#6D7685"/>
</svg>
