<svg width="16" height="16" viewBox="0 0 16 16" fill="none" xmlns="http://www.w3.org/2000/svg">
    <path d="M13 3.66699L12.5869 10.3504C12.4813 12.0579 12.4285 12.9117 12.0005 13.5256C11.7889 13.8291 11.5165 14.0852 11.2005 14.2777C10.5614 14.667 9.706 14.667 7.99513 14.667C6.28208 14.667 5.42553 14.667 4.78603 14.2769C4.46987 14.0841 4.19733 13.8275 3.98579 13.5235C3.55792 12.9087 3.5063 12.0537 3.40307 10.3438L3 3.66699" stroke="#E80000" strokeWidth="1.5" stroke-linecap="round"/>
    <path d="M14 3.66699H2" stroke="#E80000" strokeWidth="1.5" stroke-linecap="round"/>
    <path d="M10.705 3.66634L10.2499 2.72749C9.94752 2.10385 9.79639 1.79202 9.53566 1.59755C9.47779 1.55441 9.41659 1.51603 9.35252 1.48281C9.06379 1.33301 8.71725 1.33301 8.02419 1.33301C7.31372 1.33301 6.95845 1.33301 6.66495 1.48909C6.59989 1.52368 6.53782 1.56361 6.47936 1.60845C6.21559 1.81081 6.06825 2.13404 5.77357 2.78051L5.36978 3.66634" stroke="#E80000" strokeWidth="1.5" stroke-linecap="round"/>
    <path d="M6.33334 11V7" stroke="#E80000" strokeWidth="1.5" stroke-linecap="round"/>
    <path d="M9.66666 11V7" stroke="#E80000" strokeWidth="1.5" stroke-linecap="round"/>
</svg>
