<svg width="16" height="16" viewBox="0 0 16 16" fill="none" xmlns="http://www.w3.org/2000/svg">
    <path d="M7.33334 12.9997C7.18514 12.9997 6.88234 12.8383 6.27685 12.5155C5.66141 12.1875 4.81114 11.8611 3.72168 11.6563C2.49954 11.4264 1.88846 11.3115 1.6109 10.9722C1.33334 10.6329 1.33334 10.0895 1.33334 9.00261V4.73071C1.33334 3.54203 1.33334 2.94769 1.76581 2.58169C2.19828 2.21568 2.70608 2.31117 3.72168 2.50215C5.7264 2.87914 6.92121 3.66771 7.33334 4.12043C7.74548 3.66771 8.94028 2.87914 10.945 2.50215C11.9606 2.31117 12.4684 2.21568 12.9009 2.58169C13.3333 2.94769 13.3333 3.54203 13.3333 4.73071V6.66634" stroke="#41B58C" strokeWidth="1.5" stroke-linecap="round" strokeLinejoin="round"/>
    <path d="M13.7772 10.4271L11.572 12.6323L12.2791 13.3395L14.4843 11.1342L13.7772 10.4271ZM10.3673 11.4277L12.5725 9.22247L11.8655 8.51534L9.66019 10.7206L10.3673 11.4277ZM10.1273 13.0812C10.0103 13.1062 9.91686 13.1261 9.83653 13.1411C9.75553 13.1561 9.70239 13.1633 9.66639 13.1655C9.62939 13.1679 9.63193 13.1635 9.65499 13.1695C9.68639 13.1776 9.72906 13.1978 9.76546 13.2342L9.05839 13.9413C9.27419 14.1571 9.54386 14.1754 9.72986 14.1635C9.90686 14.1523 10.1226 14.1048 10.3363 14.0591L10.1273 13.0812ZM8.94059 12.6633C8.89486 12.8771 8.84739 13.0928 8.83613 13.2698C8.82426 13.4558 8.84253 13.7255 9.05839 13.9413L9.76546 13.2342C9.80186 13.2706 9.82206 13.3133 9.83019 13.3447C9.83613 13.3677 9.83173 13.3703 9.83413 13.3333C9.83639 13.2973 9.84353 13.2441 9.85859 13.1631C9.87353 13.0828 9.89346 12.9893 9.91846 12.8724L8.94059 12.6633ZM13.7772 9.22247C14.0222 9.46747 14.0723 9.52367 14.0978 9.56787L14.9639 9.06787C14.8559 8.88087 14.6838 8.71487 14.4843 8.51534L13.7772 9.22247ZM14.4843 11.1342C14.6838 10.9347 14.8559 10.7687 14.9639 10.5817L14.0978 10.0817C14.0723 10.1259 14.0222 10.1821 13.7772 10.4271L14.4843 11.1342ZM14.0978 9.56787C14.1896 9.72687 14.1896 9.92274 14.0978 10.0817L14.9639 10.5817C15.2343 10.1133 15.2343 9.53627 14.9639 9.06787L14.0978 9.56787ZM14.4843 8.51534C14.2848 8.31587 14.1188 8.14374 13.9318 8.03581L13.4318 8.90187C13.476 8.92741 13.5322 8.97747 13.7772 9.22247L14.4843 8.51534ZM12.5725 9.22247C12.8175 8.97747 12.8737 8.92741 12.9179 8.90187L12.4179 8.03581C12.231 8.14374 12.0649 8.31587 11.8655 8.51534L12.5725 9.22247ZM13.9318 8.03581C13.4634 7.76541 12.8863 7.76541 12.4179 8.03581L12.9179 8.90187C13.0769 8.81007 13.2728 8.81007 13.4318 8.90187L13.9318 8.03581ZM11.572 12.6323C11.4416 12.7627 11.2635 12.847 11.0103 12.9116C10.8835 12.944 10.7483 12.969 10.5975 12.9951C10.4527 13.0201 10.2869 13.0471 10.1273 13.0812L10.3363 14.0591C10.4709 14.0303 10.6087 14.0079 10.7678 13.9805C10.9209 13.954 11.0897 13.9234 11.2577 13.8805C11.5943 13.7946 11.9689 13.6497 12.2791 13.3395L11.572 12.6323ZM9.91846 12.8724C9.95259 12.7128 9.97959 12.547 10.0046 12.4021C10.0307 12.2514 10.0557 12.1161 10.0881 11.9893C10.1527 11.7362 10.237 11.5581 10.3673 11.4277L9.66019 10.7206C9.34999 11.0308 9.20506 11.4054 9.11913 11.7419C9.07626 11.9099 9.04566 12.0787 9.01919 12.2319C8.99173 12.3909 8.96933 12.5288 8.94059 12.6633L9.91846 12.8724Z" fill="#41B58C"/>
</svg>
