<svg width="202" height="41" viewBox="0 0 202 41" fill="none" xmlns="http://www.w3.org/2000/svg">
<g clip-path="url(#clip0_212_2234)">
<path fill-rule="evenodd" clip-rule="evenodd" d="M25.5557 12.1853C23.9112 11.0865 21.9778 10.5 20 10.5V0.5C23.9556 0.5 27.8224 1.67298 31.1114 3.87061C34.4004 6.06823 36.9638 9.19181 38.4776 12.8463C39.9913 16.5008 40.3874 20.5222 39.6157 24.4018C38.844 28.2814 36.9392 31.8451 34.1421 34.6421C31.3451 37.4392 27.7814 39.344 23.9018 40.1157C20.0222 40.8874 16.0008 40.4913 12.3463 38.9776C8.6918 37.4638 5.56823 34.9004 3.37061 31.6114C1.17298 28.3224 0 24.4556 0 20.5H10C10 22.4778 10.5865 24.4112 11.6853 26.0557C12.7841 27.7002 14.3459 28.9819 16.1732 29.7388C18.0004 30.4957 20.0111 30.6937 21.9509 30.3078C23.8907 29.922 25.6725 28.9696 27.0711 27.5711C28.4696 26.1725 29.422 24.3907 29.8078 22.4509C30.1937 20.5111 29.9957 18.5004 29.2388 16.6732C28.4819 14.8459 27.2002 13.2841 25.5557 12.1853Z" fill="#2557A7"/>
<path fill-rule="evenodd" clip-rule="evenodd" d="M9.99999 0.500005C9.99999 1.81322 9.74134 3.11358 9.23879 4.32684C8.73624 5.54009 7.99965 6.64248 7.07106 7.57107C6.14248 8.49966 5.04009 9.23625 3.82683 9.7388C2.61357 10.2413 1.31321 10.5 4.3711e-07 10.5L0 20.5C2.62643 20.5 5.22715 19.9827 7.65367 18.9776C10.0802 17.9725 12.285 16.4993 14.1421 14.6421C15.9993 12.785 17.4725 10.5802 18.4776 8.15367C19.4827 5.72715 20 3.12643 20 0.5L9.99999 0.500005Z" fill="#2557A7"/>
<path d="M125.619 14.9521H120.767V30.3644H125.619V14.9521Z" fill="#2557A7"/>
<path d="M121.307 12.0666C121.814 12.574 122.448 12.8277 123.209 12.8277C123.97 12.8277 124.594 12.574 125.08 12.0666C125.567 11.5381 125.81 10.9038 125.81 10.1638C125.81 9.40277 125.567 8.76849 125.08 8.26111C124.594 7.75369 123.97 7.5 123.209 7.5C122.448 7.5 121.814 7.75369 121.307 8.26111C120.82 8.76849 120.577 9.40277 120.577 10.1638C120.577 10.9038 120.82 11.5381 121.307 12.0666Z" fill="#2557A7"/>
<path d="M51.1562 30.3647V7.97559H56.1352V25.9884H66.0613V30.3647H51.1562Z" fill="#2557A7"/>
<path fill-rule="evenodd" clip-rule="evenodd" d="M75.0273 30.7135C73.4417 30.7135 72.0041 30.3647 70.7144 29.667C69.4459 28.9482 68.4417 27.9757 67.7017 26.7494C66.9618 25.5232 66.5918 24.149 66.5918 22.6268C66.5918 21.1046 66.9618 19.741 67.7017 18.5359C68.4417 17.3308 69.4459 16.3794 70.7144 15.6818C71.9829 14.9629 73.4206 14.6035 75.0273 14.6035C76.6341 14.6035 78.0717 14.9524 79.3402 15.65C80.6087 16.3477 81.613 17.3097 82.3529 18.5359C83.0929 19.741 83.4629 21.1046 83.4629 22.6268C83.4629 24.149 83.0929 25.5232 82.3529 26.7494C81.613 27.9757 80.6087 28.9482 79.3402 29.667C78.0717 30.3647 76.6341 30.7135 75.0273 30.7135ZM75.0273 26.3055C75.725 26.3055 76.3381 26.1575 76.8667 25.8615C77.3952 25.5444 77.7969 25.111 78.0717 24.5613C78.3677 23.9905 78.5157 23.3456 78.5157 22.6268C78.5157 21.908 78.3677 21.2843 78.0717 20.7558C77.7757 20.2061 77.3635 19.7833 76.8349 19.4873C76.3275 19.1701 75.725 19.0116 75.0273 19.0116C74.3508 19.0116 73.7483 19.1701 73.2197 19.4873C72.6912 19.7833 72.2789 20.2061 71.9829 20.7558C71.6869 21.3055 71.539 21.9397 71.539 22.6585C71.539 23.3562 71.6869 23.9905 71.9829 24.5613C72.2789 25.111 72.6912 25.5444 73.2197 25.8615C73.7483 26.1575 74.3508 26.3055 75.0273 26.3055Z" fill="#2557A7"/>
<path fill-rule="evenodd" clip-rule="evenodd" d="M87.3056 36.3906C88.5952 36.9825 90.0857 37.2785 91.7771 37.2785C93.4261 37.2785 94.8955 36.9508 96.1851 36.2954C97.4748 35.64 98.4895 34.731 99.2295 33.5682C99.9694 32.4054 100.34 31.0312 100.34 29.4455V14.9529H95.5825V15.9884C95.2287 15.6906 94.8269 15.4406 94.3775 15.2383C93.5529 14.8366 92.6121 14.6357 91.5551 14.6357C90.1386 14.6357 88.8806 14.974 87.7813 15.6505C86.6818 16.3059 85.8151 17.215 85.1808 18.3778C84.5465 19.5195 84.2295 20.8091 84.2295 22.2468C84.2295 23.6633 84.5465 24.9529 85.1808 26.1157C85.8151 27.2785 86.6818 28.1982 87.7813 28.8747C88.8806 29.5512 90.1386 29.8895 91.5551 29.8895C92.591 29.8895 93.5318 29.6887 94.3775 29.287C94.7871 29.0924 95.1571 28.8631 95.4874 28.599V29.5724C95.4874 30.6506 95.1386 31.4857 94.4409 32.0777C93.7644 32.6697 92.8236 32.9656 91.6185 32.9656C90.646 32.9656 89.8109 32.7965 89.1132 32.4582C88.4367 32.12 87.8235 31.6231 87.2738 30.9677L84.2929 33.9487C85.0328 35.0058 86.0371 35.8198 87.3056 36.3906ZM94.2189 25.1326C93.7326 25.4286 93.1513 25.5766 92.4747 25.5766C91.7982 25.5766 91.2062 25.4286 90.6988 25.1326C90.2125 24.8366 89.832 24.4349 89.5572 23.9275C89.2823 23.399 89.1449 22.8387 89.1449 22.2468C89.1449 21.6125 89.2823 21.0417 89.5572 20.5343C89.832 20.0269 90.2231 19.6252 90.7305 19.3292C91.2379 19.0332 91.8193 18.8852 92.4747 18.8852C93.1513 18.8852 93.7326 19.0332 94.2189 19.3292C94.7263 19.6252 95.1068 20.0269 95.3606 20.5343C95.6354 21.0417 95.7728 21.6125 95.7728 22.2468C95.7728 22.881 95.6354 23.4518 95.3606 23.9592C95.1068 24.4455 94.7263 24.8366 94.2189 25.1326Z" fill="#2557A7"/>
<path fill-rule="evenodd" clip-rule="evenodd" d="M110.551 30.7135C108.965 30.7135 107.527 30.3647 106.238 29.667C104.969 28.9482 103.965 27.9757 103.225 26.7494C102.485 25.5232 102.115 24.149 102.115 22.6268C102.115 21.1046 102.485 19.741 103.225 18.5359C103.965 17.3308 104.969 16.3794 106.238 15.6818C107.506 14.9629 108.944 14.6035 110.551 14.6035C112.157 14.6035 113.595 14.9524 114.863 15.65C116.132 16.3477 117.136 17.3097 117.876 18.5359C118.616 19.741 118.986 21.1046 118.986 22.6268C118.986 24.149 118.616 25.5232 117.876 26.7494C117.136 27.9757 116.132 28.9482 114.863 29.667C113.595 30.3647 112.157 30.7135 110.551 30.7135ZM110.551 26.3055C111.248 26.3055 111.861 26.1575 112.39 25.8615C112.918 25.5444 113.32 25.111 113.595 24.5613C113.891 23.9905 114.039 23.3456 114.039 22.6268C114.039 21.908 113.891 21.2843 113.595 20.7558C113.299 20.2061 112.887 19.7833 112.358 19.4873C111.851 19.1701 111.248 19.0116 110.551 19.0116C109.874 19.0116 109.271 19.1701 108.743 19.4873C108.214 19.7833 107.802 20.2061 107.506 20.7558C107.21 21.3055 107.062 21.9397 107.062 22.6585C107.062 23.3562 107.21 23.9905 107.506 24.5613C107.802 25.111 108.214 25.5444 108.743 25.8615C109.271 26.1575 109.874 26.3055 110.551 26.3055Z" fill="#2557A7"/>
<path fill-rule="evenodd" clip-rule="evenodd" d="M137.281 30.6823C136.246 30.6823 135.294 30.4815 134.427 30.0798C133.971 29.8684 133.559 29.616 133.191 29.3226V36.8663H128.402V14.9529H133.254V16.0166C133.606 15.7287 133.997 15.4798 134.427 15.27C135.294 14.8471 136.246 14.6357 137.281 14.6357C138.74 14.6357 140.03 14.9846 141.15 15.6823C142.292 16.3799 143.18 17.3313 143.814 18.5364C144.47 19.7415 144.797 21.1157 144.797 22.659C144.797 24.2024 144.47 25.5766 143.814 26.7817C143.18 27.9868 142.292 28.9381 141.15 29.6358C140.03 30.3335 138.74 30.6823 137.281 30.6823ZM136.394 26.306C137.091 26.306 137.694 26.1474 138.201 25.8303C138.73 25.5132 139.142 25.0797 139.438 24.5301C139.734 23.9804 139.882 23.3567 139.882 22.659C139.882 21.9402 139.734 21.306 139.438 20.7563C139.142 20.2066 138.73 19.7838 138.201 19.4878C137.694 19.1706 137.102 19.0121 136.425 19.0121C135.749 19.0121 135.146 19.1706 134.618 19.4878C134.11 19.7838 133.709 20.2066 133.413 20.7563C133.117 21.306 132.969 21.9402 132.969 22.659C132.969 23.3567 133.106 23.9804 133.381 24.5301C133.677 25.0797 134.089 25.5132 134.618 25.8303C135.146 26.1474 135.738 26.306 136.394 26.306Z" fill="#2557A7"/>
<path d="M149.546 30.3968C150.434 30.6294 151.332 30.7456 152.241 30.7456C154.165 30.7456 155.687 30.3017 156.808 29.4137C157.949 28.5258 158.52 27.3313 158.52 25.8302C158.52 24.8577 158.341 24.0754 157.981 23.4835C157.622 22.8704 157.157 22.3841 156.586 22.0247C156.015 21.6653 155.412 21.3798 154.778 21.1684C154.144 20.957 153.541 20.7773 152.971 20.6293C152.4 20.4813 151.935 20.3122 151.575 20.1219C151.216 19.9316 151.036 19.6779 151.036 19.3608C151.036 19.0648 151.174 18.8428 151.448 18.6948C151.723 18.5257 152.135 18.4412 152.685 18.4412C153.256 18.4412 153.837 18.5574 154.429 18.79C155.042 19.0225 155.592 19.4243 156.078 19.9951L158.837 17.2044C158.14 16.3164 157.231 15.6504 156.11 15.2065C155.011 14.7414 153.806 14.5088 152.495 14.5088C151.248 14.5088 150.159 14.7202 149.229 15.143C148.298 15.5659 147.579 16.1473 147.072 16.8872C146.565 17.606 146.311 18.4623 146.311 19.456C146.311 20.3862 146.491 21.1579 146.85 21.771C147.209 22.3629 147.675 22.8281 148.245 23.1663C148.816 23.5046 149.419 23.7689 150.053 23.9591C150.687 24.1494 151.29 24.3291 151.861 24.4983C152.431 24.6463 152.897 24.826 153.256 25.0374C153.637 25.2277 153.827 25.5131 153.827 25.8936C153.827 26.1896 153.668 26.4221 153.351 26.5913C153.055 26.7604 152.622 26.845 152.051 26.845C151.226 26.845 150.465 26.697 149.768 26.401C149.07 26.0839 148.467 25.6505 147.96 25.1008L145.201 27.8915C145.73 28.4623 146.364 28.9698 147.104 29.4137C147.865 29.8365 148.679 30.1642 149.546 30.3968Z" fill="#2557A7"/>
<path d="M167.368 30.7132C165.952 30.7132 164.694 30.4278 163.595 29.857C162.516 29.265 161.671 28.4616 161.058 27.4468C160.444 26.4109 160.138 25.227 160.138 23.895V14.9521H164.99V23.8316C164.99 24.3601 165.074 24.8147 165.244 25.1952C165.434 25.5758 165.709 25.8718 166.068 26.0832C166.428 26.2946 166.861 26.4003 167.368 26.4003C168.087 26.4003 168.658 26.1783 169.081 25.7343C169.504 25.2692 169.715 24.635 169.715 23.8316V14.9521H174.567V23.8633C174.567 25.2164 174.261 26.4109 173.647 27.4468C173.034 28.4616 172.189 29.265 171.11 29.857C170.032 30.4278 168.785 30.7132 167.368 30.7132Z" fill="#2557A7"/>
<path d="M181.831 14.9529H176.979V30.3652H181.831V21.3588C181.831 20.8303 181.937 20.3863 182.148 20.0269C182.381 19.6675 182.688 19.3926 183.068 19.2024C183.449 18.9909 183.882 18.8852 184.368 18.8852C185.066 18.8852 185.647 19.1072 186.112 19.5512C186.599 19.974 186.842 20.5766 186.842 21.3588V30.3652H191.694V21.3588C191.694 20.8303 191.8 20.3863 192.011 20.0269C192.244 19.6675 192.55 19.3926 192.931 19.2024C193.311 18.9909 193.745 18.8852 194.231 18.8852C194.929 18.8852 195.51 19.1072 195.975 19.5512C196.461 19.974 196.704 20.5766 196.704 21.3588V30.3652H201.557V20.8197C201.557 19.5301 201.282 18.4307 200.732 17.5216C200.203 16.5913 199.474 15.8831 198.544 15.3969C197.635 14.8894 196.588 14.6357 195.404 14.6357C194.199 14.6357 193.11 14.9 192.138 15.4286C191.506 15.7653 190.954 16.1999 190.481 16.7323C190.04 16.1754 189.504 15.7197 188.871 15.3651C188.026 14.8789 187.064 14.6357 185.986 14.6357C184.844 14.6357 183.819 14.8789 182.91 15.3651C182.514 15.5674 182.155 15.8097 181.831 16.092V14.9529Z" fill="#2557A7"/>
</g>
<defs>
<clipPath id="clip0_212_2234">
<rect width="202" height="40" fill="white" transform="translate(0 0.5)"/>
</clipPath>
</defs>
</svg>
