<svg width="32" height="32" viewBox="0 0 32 32" fill="none" xmlns="http://www.w3.org/2000/svg">
    <path d="M30.0014 16.3114C30.0014 15.1603 29.9061 14.3203 29.6998 13.4492H16.2871V18.6447H24.1601C24.0014 19.9359 23.1442 21.8803 21.2394 23.1869L21.2127 23.3609L25.4536 26.5805L25.7474 26.6092C28.4458 24.167 30.0014 20.5736 30.0014 16.3114Z" fill="#4285F4"/>
    <path d="M16.2862 30.0008C20.1433 30.0008 23.3814 28.7562 25.7465 26.6096L21.2386 23.1873C20.0322 24.0117 18.4132 24.5873 16.2862 24.5873C12.5085 24.5873 9.30219 22.1451 8.15923 18.7695L7.9917 18.7835L3.58202 22.128L3.52435 22.2851C5.87353 26.8584 10.6989 30.0008 16.2862 30.0008Z" fill="#34A853"/>
    <path d="M8.16007 18.768C7.85848 17.8969 7.68395 16.9635 7.68395 15.9991C7.68395 15.0346 7.85849 14.1013 8.1442 13.2302L8.13621 13.0447L3.67126 9.64648L3.52518 9.71458C2.55696 11.6124 2.0014 13.7435 2.0014 15.9991C2.0014 18.2546 2.55696 20.3857 3.52518 22.2835L8.16007 18.768Z" fill="#FBBC05"/>
    <path d="M16.2863 7.4133C18.9688 7.4133 20.7783 8.54885 21.8101 9.4978L25.8418 5.64C23.3657 3.38445 20.1434 2 16.2863 2C10.699 2 5.87354 5.1422 3.52435 9.71549L8.14339 13.2311C9.30223 9.85555 12.5086 7.4133 16.2863 7.4133Z" fill="#EB4335"/>
</svg>
