<svg width="24" height="25" viewBox="0 0 24 25" fill="none" xmlns="http://www.w3.org/2000/svg">
    <path fill-rule="evenodd" clip-rule="evenodd" d="M12.058 2.07918C8.54635 2.06507 5.28554 3.88595 3.46059 6.87904C1.63541 9.87253 1.51288 13.6016 3.13765 16.7081L3.32147 17.0664C3.39175 17.1982 3.40531 17.3403 3.36458 17.4716C3.10204 18.1654 2.87136 18.9147 2.6873 19.6759L2.66776 19.8399C2.66776 20.6053 3.07616 21.1312 3.88671 21.1132L4.02167 21.097C4.75798 20.9344 5.4831 20.7249 6.19261 20.4698C6.28665 20.446 6.4407 20.4553 6.57971 20.5121L7.26224 20.8984C7.26378 20.9031 7.26493 20.9067 7.27208 20.9109L7.31788 20.9269C10.9929 22.8593 15.4812 22.3262 18.5997 19.5868C21.7187 16.847 22.8199 12.4691 21.3675 8.58281C19.9153 4.69697 16.2115 2.10971 12.058 2.07918ZM11.7675 3.47797L12.0484 3.47357C15.6231 3.50076 18.8109 5.72756 20.0605 9.07129C21.31 12.4146 20.3626 16.181 17.6788 18.5385L17.4587 18.7255C14.8626 20.857 11.2582 21.2866 8.23269 19.8257L7.94496 19.6815L7.95729 19.6832L7.93909 19.6782L7.51677 19.4359C7.36471 19.3499 7.24408 19.2848 7.14685 19.238C6.6837 19.0471 6.21354 19.0189 5.77133 19.1407L5.35272 19.2845C5.07605 19.3758 4.80372 19.4584 4.53273 19.5331L4.13767 19.6362L4.04356 20.0038C4.21419 19.2982 4.42804 18.6036 4.68389 17.924C4.84853 17.3972 4.79818 16.8695 4.55755 16.4192L4.37662 16.0663C2.97627 13.3888 3.08168 10.1809 4.65196 7.60543C6.17338 5.11015 8.85494 3.5613 11.7675 3.47797ZM6.4746 12.0791C6.4746 11.4489 6.98586 10.9385 7.61596 10.9385C8.24606 10.9385 8.75732 11.4489 8.75732 12.0791C8.75732 12.7094 8.24606 13.2198 7.61596 13.2198C6.98586 13.2198 6.4746 12.7094 6.4746 12.0791ZM10.9115 12.0791C10.9115 11.4489 11.4227 10.9385 12.0528 10.9385C12.6829 10.9385 13.1942 11.4489 13.1942 12.0791C13.1942 12.7094 12.6829 13.2198 12.0528 13.2198C11.4227 13.2198 10.9115 12.7094 10.9115 12.0791ZM16.4897 10.9385C15.8596 10.9385 15.3484 11.4489 15.3484 12.0791C15.3484 12.7094 15.8596 13.2198 16.4897 13.2198C17.1198 13.2198 17.6311 12.7094 17.6311 12.0791C17.6311 11.4489 17.1198 10.9385 16.4897 10.9385Z" fill="#6D7685"/>
</svg>
