<svg width="162" height="33" viewBox="0 0 162 33" fill="none" xmlns="http://www.w3.org/2000/svg">
    <g clip-path="url(#clip0_238_3551)">
        <path fill-rule="evenodd" clip-rule="evenodd" d="M20.4952 9.37138C19.1763 8.49016 17.6258 8.0198 16.0396 8.0198V0C19.2119 0 22.313 0.940707 24.9507 2.70316C27.5884 4.46561 29.6442 6.97066 30.8583 9.90149C32.0722 12.8323 32.3899 16.0574 31.771 19.1688C31.1521 22.2801 29.6245 25.1382 27.3813 27.3813C25.1382 29.6245 22.2801 31.1521 19.1688 31.771C16.0574 32.3899 12.8323 32.0722 9.90149 30.8583C6.97065 29.6442 4.46561 27.5884 2.70316 24.9507C0.940707 22.313 0 19.2119 0 16.0396H8.0198C8.0198 17.6258 8.49016 19.1763 9.37138 20.4952C10.2526 21.814 11.5051 22.8419 12.9706 23.4489C14.436 24.056 16.0485 24.2148 17.6042 23.9053C19.1599 23.5959 20.5888 22.8321 21.7105 21.7105C22.8321 20.5888 23.5959 19.1599 23.9053 17.6042C24.2148 16.0485 24.056 14.436 23.4489 12.9706C22.8419 11.5051 21.814 10.2526 20.4952 9.37138Z" fill="#2557A7"/>
        <path fill-rule="evenodd" clip-rule="evenodd" d="M8.0198 4.23841e-06C8.0198 1.05318 7.81236 2.09604 7.40933 3.06905C7.00629 4.04206 6.41556 4.92615 5.67085 5.67086C4.92615 6.41557 4.04206 7.0063 3.06905 7.40934C2.09603 7.81237 1.05317 8.01981 3.50554e-07 8.01981L0 16.0396C2.10635 16.0396 4.19207 15.6247 6.13809 14.8187C8.08412 14.0126 9.85232 12.8311 11.3417 11.3417C12.8311 9.85233 14.0126 8.08412 14.8187 6.1381C15.6247 4.19207 16.0396 2.10635 16.0396 0L8.0198 4.23841e-06Z" fill="#2557A7"/>
        <path d="M100.744 11.5908H96.8528V23.9512H100.744V11.5908Z" fill="#2557A7"/>
        <path d="M97.2858 9.27658C97.6924 9.68351 98.2008 9.88697 98.8111 9.88697C99.4214 9.88697 99.9219 9.68351 100.312 9.27658C100.702 8.85273 100.897 8.34404 100.897 7.75061C100.897 7.14024 100.702 6.63156 100.312 6.22465C99.9219 5.81771 99.4214 5.61426 98.8111 5.61426C98.2008 5.61426 97.6924 5.81771 97.2858 6.22465C96.8952 6.63156 96.7003 7.14024 96.7003 7.75061C96.7003 8.34404 96.8952 8.85273 97.2858 9.27658Z" fill="#2557A7"/>
        <path d="M41.0262 23.9507V5.99512H45.0192V20.441H52.9798V23.9507H41.0262Z" fill="#2557A7"/>
        <path fill-rule="evenodd" clip-rule="evenodd" d="M60.1705 24.2304C58.8989 24.2304 57.7459 23.9507 56.7116 23.3912C55.6943 22.8147 54.889 22.0348 54.2955 21.0513C53.7021 20.0679 53.4054 18.9658 53.4054 17.7451C53.4054 16.5243 53.7021 15.4307 54.2955 14.4643C54.889 13.4978 55.6943 12.7348 56.7116 12.1753C57.7289 11.5988 58.882 11.3105 60.1705 11.3105C61.4591 11.3105 62.612 11.5904 63.6294 12.1498C64.6467 12.7094 65.4521 13.4809 66.0455 14.4643C66.6389 15.4307 66.9357 16.5243 66.9357 17.7451C66.9357 18.9658 66.6389 20.0679 66.0455 21.0513C65.4521 22.0348 64.6467 22.8147 63.6294 23.3912C62.612 23.9507 61.4591 24.2304 60.1705 24.2304ZM60.1705 20.6953C60.73 20.6953 61.2217 20.5766 61.6457 20.3392C62.0695 20.0849 62.3917 19.7374 62.612 19.2965C62.8494 18.8387 62.9681 18.3215 62.9681 17.7451C62.9681 17.1686 62.8494 16.6684 62.612 16.2446C62.3747 15.8037 62.0441 15.4646 61.6202 15.2273C61.2132 14.9729 60.73 14.8458 60.1705 14.8458C59.628 14.8458 59.1448 14.9729 58.7208 15.2273C58.297 15.4646 57.9663 15.8037 57.7289 16.2446C57.4916 16.6854 57.3729 17.194 57.3729 17.7705C57.3729 18.33 57.4916 18.8387 57.7289 19.2965C57.9663 19.7374 58.297 20.0849 58.7208 20.3392C59.1448 20.5766 59.628 20.6953 60.1705 20.6953Z" fill="#2557A7"/>
        <path fill-rule="evenodd" clip-rule="evenodd" d="M70.0174 28.7829C71.0516 29.2576 72.247 29.495 73.6034 29.495C74.9259 29.495 76.1043 29.2322 77.1386 28.7066C78.1729 28.181 78.9867 27.452 79.5801 26.5194C80.1735 25.5869 80.4706 24.4848 80.4706 23.2131V11.5903H76.6553V12.4208C76.3716 12.1819 76.0493 11.9815 75.6889 11.8192C75.0276 11.4971 74.2731 11.3359 73.4254 11.3359C72.2894 11.3359 71.2805 11.6072 70.3989 12.1498C69.5171 12.6754 68.822 13.4045 68.3133 14.337C67.8046 15.2526 67.5504 16.2869 67.5504 17.4399C67.5504 18.5759 67.8046 19.6101 68.3133 20.5427C68.822 21.4752 69.5171 22.2128 70.3989 22.7553C71.2805 23.2979 72.2894 23.5692 73.4254 23.5692C74.2562 23.5692 75.0107 23.4081 75.6889 23.086C76.0174 22.9299 76.3141 22.746 76.579 22.5342V23.3149C76.579 24.1796 76.2993 24.8493 75.7398 25.3241C75.1972 25.7988 74.4427 26.0362 73.4762 26.0362C72.6963 26.0362 72.0266 25.9005 71.467 25.6292C70.9245 25.358 70.4327 24.9595 69.9919 24.4339L67.6013 26.8246C68.1946 27.6724 69.0001 28.3252 70.0174 28.7829ZM75.5617 19.7542C75.1717 19.9916 74.7055 20.1103 74.1629 20.1103C73.6204 20.1103 73.1456 19.9916 72.7387 19.7542C72.3487 19.5169 72.0435 19.1947 71.8231 18.7878C71.6027 18.3639 71.4925 17.9146 71.4925 17.4399C71.4925 16.9312 71.6027 16.4734 71.8231 16.0665C72.0435 15.6596 72.3572 15.3374 72.7641 15.1C73.171 14.8626 73.6373 14.744 74.1629 14.744C74.7055 14.744 75.1717 14.8626 75.5617 15.1C75.9686 15.3374 76.2738 15.6596 76.4773 16.0665C76.6977 16.4734 76.8079 16.9312 76.8079 17.4399C76.8079 17.9485 76.6977 18.4063 76.4773 18.8132C76.2738 19.2032 75.9686 19.5169 75.5617 19.7542Z" fill="#2557A7"/>
        <path fill-rule="evenodd" clip-rule="evenodd" d="M88.6597 24.2304C87.3877 24.2304 86.2345 23.9507 85.2007 23.3912C84.183 22.8147 83.3778 22.0348 82.7844 21.0513C82.1909 20.0679 81.8942 18.9658 81.8942 17.7451C81.8942 16.5243 82.1909 15.4307 82.7844 14.4643C83.3778 13.4978 84.183 12.7348 85.2007 12.1753C86.2176 11.5988 87.3709 11.3105 88.6597 11.3105C89.9477 11.3105 91.1009 11.5904 92.1178 12.1498C93.1355 12.7094 93.9407 13.4809 94.5342 14.4643C95.1276 15.4307 95.4244 16.5243 95.4244 17.7451C95.4244 18.9658 95.1276 20.0679 94.5342 21.0513C93.9407 22.0348 93.1355 22.8147 92.1178 23.3912C91.1009 23.9507 89.9477 24.2304 88.6597 24.2304ZM88.6597 20.6953C89.2187 20.6953 89.7103 20.5766 90.1345 20.3392C90.558 20.0849 90.8804 19.7374 91.1009 19.2965C91.3383 18.8387 91.457 18.3215 91.457 17.7451C91.457 17.1686 91.3383 16.6684 91.1009 16.2446C90.8635 15.8037 90.5331 15.4646 90.1089 15.2273C89.7022 14.9729 89.2187 14.8458 88.6597 14.8458C88.1167 14.8458 87.6331 14.9729 87.2097 15.2273C86.7854 15.4646 86.455 15.8037 86.2176 16.2446C85.9803 16.6854 85.8616 17.194 85.8616 17.7705C85.8616 18.33 85.9803 18.8387 86.2176 19.2965C86.455 19.7374 86.7854 20.0849 87.2097 20.3392C87.6331 20.5766 88.1167 20.6953 88.6597 20.6953Z" fill="#2557A7"/>
        <path fill-rule="evenodd" clip-rule="evenodd" d="M110.097 24.205C109.267 24.205 108.503 24.044 107.808 23.7218C107.442 23.5523 107.112 23.3498 106.817 23.1145V29.1644H102.976V11.5903H106.867V12.4434C107.149 12.2125 107.463 12.0129 107.808 11.8446C108.503 11.5055 109.267 11.3359 110.097 11.3359C111.267 11.3359 112.301 11.6157 113.199 12.1753C114.115 12.7348 114.827 13.4978 115.336 14.4642C115.862 15.4307 116.124 16.5328 116.124 17.7705C116.124 19.0082 115.862 20.1103 115.336 21.0768C114.827 22.0433 114.115 22.8062 113.199 23.3657C112.301 23.9253 111.267 24.205 110.097 24.205ZM109.385 20.6953C109.944 20.6953 110.428 20.5681 110.834 20.3138C111.259 20.0595 111.589 19.7118 111.826 19.271C112.064 18.8302 112.183 18.33 112.183 17.7705C112.183 17.194 112.064 16.6854 111.826 16.2445C111.589 15.8037 111.259 15.4646 110.834 15.2272C110.428 14.9728 109.953 14.8457 109.41 14.8457C108.868 14.8457 108.384 14.9728 107.961 15.2272C107.554 15.4646 107.232 15.8037 106.995 16.2445C106.757 16.6854 106.638 17.194 106.638 17.7705C106.638 18.33 106.748 18.8302 106.969 19.271C107.206 19.7118 107.537 20.0595 107.961 20.3138C108.384 20.5681 108.859 20.6953 109.385 20.6953Z" fill="#2557A7"/>
        <path d="M119.933 23.9762C120.645 24.1628 121.365 24.256 122.094 24.256C123.637 24.256 124.858 23.9 125.757 23.1878C126.672 22.4757 127.13 21.5178 127.13 20.3139C127.13 19.534 126.986 18.9066 126.698 18.4319C126.41 17.9402 126.037 17.5502 125.579 17.262C125.121 16.9737 124.637 16.7448 124.129 16.5752C123.62 16.4057 123.137 16.2616 122.68 16.1429C122.222 16.0242 121.849 15.8886 121.56 15.736C121.272 15.5834 121.128 15.3799 121.128 15.1256C121.128 14.8882 121.239 14.7102 121.458 14.5915C121.679 14.4558 122.009 14.3881 122.45 14.3881C122.908 14.3881 123.374 14.4813 123.849 14.6678C124.341 14.8543 124.782 15.1765 125.171 15.6343L127.384 13.3962C126.825 12.684 126.096 12.1499 125.197 11.7939C124.316 11.4209 123.349 11.2344 122.298 11.2344C121.298 11.2344 120.425 11.4039 119.679 11.743C118.932 12.0821 118.355 12.5484 117.949 13.1418C117.542 13.7183 117.339 14.405 117.339 15.2019C117.339 15.9479 117.483 16.5668 117.771 17.0585C118.059 17.5332 118.432 17.9063 118.89 18.1775C119.348 18.4488 119.831 18.6608 120.34 18.8133C120.848 18.9659 121.332 19.1101 121.79 19.2458C122.247 19.3644 122.62 19.5086 122.908 19.6781C123.214 19.8307 123.366 20.0596 123.366 20.3648C123.366 20.6021 123.239 20.7886 122.984 20.9243C122.747 21.0599 122.4 21.1278 121.942 21.1278C121.28 21.1278 120.67 21.0091 120.111 20.7717C119.551 20.5174 119.068 20.1698 118.661 19.7289L116.448 21.967C116.873 22.4248 117.381 22.8318 117.975 23.1878C118.585 23.5269 119.238 23.7897 119.933 23.9762Z" fill="#2557A7"/>
        <path d="M134.226 24.2309C133.09 24.2309 132.081 24.002 131.2 23.5443C130.335 23.0695 129.657 22.4252 129.165 21.6113C128.673 20.7806 128.427 19.8311 128.427 18.7628V11.5908H132.319V18.712C132.319 19.1359 132.386 19.5004 132.522 19.8056C132.675 20.1108 132.895 20.3482 133.183 20.5177C133.472 20.6873 133.819 20.772 134.226 20.772C134.802 20.772 135.26 20.594 135.6 20.2379C135.939 19.8649 136.108 19.3563 136.108 18.712V11.5908H139.999V18.7374C139.999 19.8226 139.754 20.7806 139.261 21.6113C138.77 22.4252 138.092 23.0695 137.227 23.5443C136.362 24.002 135.362 24.2309 134.226 24.2309Z" fill="#2557A7"/>
        <path d="M145.825 11.5903H141.934V23.9507H145.825V16.7277C145.825 16.3039 145.91 15.9478 146.079 15.6596C146.266 15.3713 146.512 15.1509 146.817 14.9983C147.122 14.8287 147.47 14.744 147.859 14.744C148.419 14.744 148.885 14.922 149.258 15.2781C149.649 15.6171 149.844 16.1004 149.844 16.7277V23.9507H153.735V16.7277C153.735 16.3039 153.82 15.9478 153.989 15.6596C154.176 15.3713 154.421 15.1509 154.727 14.9983C155.032 14.8287 155.38 14.744 155.769 14.744C156.329 14.744 156.795 14.922 157.168 15.2781C157.558 15.6171 157.753 16.1004 157.753 16.7277V23.9507H161.645V16.2954C161.645 15.2611 161.424 14.3795 160.983 13.6504C160.559 12.9043 159.974 12.3363 159.228 11.9464C158.499 11.5394 157.66 11.3359 156.71 11.3359C155.744 11.3359 154.87 11.5479 154.091 11.9718C153.584 12.2419 153.141 12.5904 152.762 13.0174C152.408 12.5707 151.978 12.2053 151.471 11.9209C150.793 11.531 150.022 11.3359 149.157 11.3359C148.241 11.3359 147.419 11.531 146.69 11.9209C146.373 12.0831 146.085 12.2775 145.825 12.5039V11.5903Z" fill="#2557A7"/>
    </g>
    <defs>
        <clipPath id="clip0_238_3551">
            <rect width="162" height="32.0792" fill="white"/>
        </clipPath>
    </defs>
</svg>
