<svg width="20" height="20" viewBox="0 0 20 20" fill="none" xmlns="http://www.w3.org/2000/svg">
    <path fill-rule="evenodd" clip-rule="evenodd" d="M1.5 6.4681C1.5 5.1961 2.54 4.1601 3.817 4.1601H16.183C17.455 4.1601 18.49 5.1961 18.49 6.4681V9.5251C16.847 10.5461 14.953 11.2611 12.959 11.6121C12.411 10.5051 11.271 9.7791 9.99 9.7791C8.72 9.7791 7.575 10.5021 7.011 11.6031C5.029 11.2541 3.142 10.5421 1.5 9.5251V6.4681ZM8.704 1.5791H11.286C11.958 1.5791 12.521 2.0401 12.688 2.6601H7.301C7.469 2.0401 8.031 1.5791 8.704 1.5791ZM7.384 13.1801C7.764 13.2331 8.111 12.9991 8.211 12.6351C8.434 11.8231 9.149 11.2791 9.99 11.2791C10.822 11.2791 11.544 11.8351 11.746 12.6311C11.832 12.9671 12.134 13.1971 12.473 13.1971C12.507 13.1971 12.542 13.1951 12.576 13.1901C15.145 12.8341 17.592 11.9251 19.654 10.5611C19.864 10.4211 19.99 10.1871 19.99 9.9351V6.4681C19.99 4.3681 18.282 2.6601 16.183 2.6601H14.206C14.019 1.2091 12.788 0.0791016 11.286 0.0791016H8.704C7.202 0.0791016 5.972 1.2081 5.784 2.6601H3.817C1.712 2.6601 0 4.3681 0 6.4681V9.9351C0 10.1871 0.126 10.4221 0.337 10.5611C2.396 11.9191 4.833 12.8241 7.384 13.1801ZM9.2451 13.4632V14.7572C9.2451 15.1712 9.5811 15.5072 9.9951 15.5072C10.4091 15.5072 10.7451 15.1712 10.7451 14.7572V13.4632C10.7451 13.0492 10.4091 12.7132 9.9951 12.7132C9.5811 12.7132 9.2451 13.0492 9.2451 13.4632ZM18.5086 13.496C18.5386 13.112 18.8516 12.806 19.2446 12.806C19.6576 12.806 19.9926 13.141 19.9926 13.554C19.9926 13.5604 19.9807 13.7144 19.963 13.943C19.9198 14.5004 19.8423 15.5012 19.8196 15.887C19.7626 16.825 19.3986 17.782 18.8456 18.448C18.0756 19.376 17.0946 19.81 15.7606 19.813C15.1416 19.814 12.5836 19.815 10.0246 19.815C7.4666 19.815 4.9076 19.814 4.2896 19.813C2.9546 19.81 1.9736 19.376 1.2036 18.447C0.6516 17.782 0.2866 16.825 0.2306 15.887C0.207537 15.5068 0.131726 14.5293 0.0881583 13.9675C0.0693859 13.7255 0.0566 13.5606 0.0566 13.554C0.0566 13.141 0.3916 12.806 0.8046 12.806C1.1976 12.806 1.5106 13.112 1.5406 13.496C1.5406 13.496 1.6946 15.245 1.7276 15.797C1.7646 16.408 2.0126 17.073 2.3586 17.489C2.8486 18.08 3.3906 18.311 4.2916 18.313C5.5276 18.315 14.5206 18.315 15.7576 18.313C16.6596 18.311 17.2016 18.08 17.6906 17.49C18.0376 17.073 18.2856 16.408 18.3226 15.797C18.3546 15.245 18.5086 13.496 18.5086 13.496Z" fill="#2557A7"/>
</svg>
