<svg width="32" height="32" viewBox="0 0 32 32" fill="none" xmlns="http://www.w3.org/2000/svg">
<path d="M15.9893 16H16.0013" stroke="#485466" strokeWidth="2" stroke-linecap="round" strokeLinejoin="round"/>
<path d="M15.9789 21.3334H15.9909" stroke="#485466" strokeWidth="2" stroke-linecap="round" strokeLinejoin="round"/>
<path d="M15.9998 10.6666H16.0118" stroke="#485466" strokeWidth="2" stroke-linecap="round" strokeLinejoin="round"/>
<path d="M3.3125 16C3.3125 10.0289 3.3125 7.04336 5.16749 5.18836C7.02247 3.33337 10.008 3.33337 15.9792 3.33337C21.9503 3.33337 24.9359 3.33337 26.7908 5.18836C28.6459 7.04336 28.6459 10.0289 28.6459 16C28.6459 21.9711 28.6459 24.9567 26.7908 26.8118C24.9359 28.6667 21.9503 28.6667 15.9792 28.6667C10.008 28.6667 7.02247 28.6667 5.16749 26.8118C3.3125 24.9567 3.3125 21.9711 3.3125 16Z" stroke="#485466" strokeWidth="1.5"/>
</svg>
