<svg width="586" height="23" viewBox="0 0 586 23" fill="none" xmlns="http://www.w3.org/2000/svg">
<path d="M0 11.5H278" stroke="#DADDE0"/>
<path d="M290.186 16.14C289.635 16.14 289.136 16.042 288.688 15.846C288.24 15.6407 287.853 15.3653 287.526 15.02C287.199 14.6653 286.947 14.2593 286.77 13.802C286.593 13.3447 286.504 12.864 286.504 12.36C286.504 11.8467 286.593 11.3613 286.77 10.904C286.947 10.4467 287.199 10.0453 287.526 9.7C287.853 9.34533 288.24 9.07 288.688 8.874C289.145 8.66867 289.645 8.566 290.186 8.566C290.737 8.566 291.236 8.66867 291.684 8.874C292.132 9.07 292.519 9.34533 292.846 9.7C293.182 10.0453 293.439 10.4467 293.616 10.904C293.793 11.3613 293.882 11.8467 293.882 12.36C293.882 12.864 293.793 13.3447 293.616 13.802C293.439 14.2593 293.187 14.6653 292.86 15.02C292.533 15.3653 292.141 15.6407 291.684 15.846C291.236 16.042 290.737 16.14 290.186 16.14ZM287.764 12.374C287.764 12.878 287.871 13.3353 288.086 13.746C288.31 14.1567 288.604 14.4833 288.968 14.726C289.332 14.9593 289.738 15.076 290.186 15.076C290.634 15.076 291.04 14.9547 291.404 14.712C291.777 14.4693 292.071 14.1427 292.286 13.732C292.51 13.312 292.622 12.85 292.622 12.346C292.622 11.842 292.51 11.3847 292.286 10.974C292.071 10.5633 291.777 10.2367 291.404 9.994C291.04 9.75133 290.634 9.63 290.186 9.63C289.738 9.63 289.332 9.756 288.968 10.008C288.604 10.2507 288.31 10.5773 288.086 10.988C287.871 11.3987 287.764 11.8607 287.764 12.374ZM299.239 9.77C298.623 9.77933 298.077 9.938 297.601 10.246C297.134 10.5447 296.803 10.96 296.607 11.492V16H295.375V8.692H296.523V10.386C296.775 9.882 297.106 9.476 297.517 9.168C297.937 8.85067 298.376 8.67333 298.833 8.636C298.926 8.636 299.006 8.636 299.071 8.636C299.136 8.636 299.192 8.64067 299.239 8.65V9.77Z" fill="#485466"/>
<path d="M308 11.5H586" stroke="#DADDE0"/>
</svg>
