<svg width="24" height="25" viewBox="0 0 24 25" fill="none" xmlns="http://www.w3.org/2000/svg">
    <path d="M12 6.0791L12 20.0791" stroke="#2557A7" strokeWidth="1.5" stroke-linecap="round"/>
    <path d="M5.98056 3.36454C9.32175 4.0007 11.3131 5.33141 12 6.09538C12.6869 5.33141 14.6782 4.0007 18.0194 3.36454C19.7121 3.04226 20.5584 2.88111 21.2792 3.49875C22 4.11638 22 5.11932 22 7.12522V14.3341C22 16.1682 22 17.0852 21.5374 17.6578C21.0748 18.2303 20.0564 18.4242 18.0194 18.8121C16.2037 19.1578 14.7866 19.7086 13.7608 20.2622C12.7516 20.8068 12.247 21.0791 12 21.0791C11.753 21.0791 11.2484 20.8068 10.2392 20.2622C9.21344 19.7086 7.79633 19.1578 5.98056 18.8121C3.94365 18.4242 2.9252 18.2303 2.4626 17.6578C2 17.0852 2 16.1682 2 14.3341V7.12522C2 5.11932 2 4.11638 2.72078 3.49875C3.44157 2.88111 4.2879 3.04226 5.98056 3.36454Z" stroke="#2557A7" strokeWidth="1.5" stroke-linecap="round" strokeLinejoin="round"/>
</svg>
