<svg width="425" height="384" viewBox="0 0 425 384" fill="none" xmlns="http://www.w3.org/2000/svg">
<g clip-path="url(#clip0_1_255)">
<path d="M417.328 309.334C411.032 322.226 400.374 333.752 386.476 343.635C317.73 392.61 169.65 402.123 80.8258 343.635C66.1578 334.03 53.1454 322.527 42.3484 309.079C13.572 273.204 -3.45129 218.328 0.583001 166.529C2.26201 145.259 4.75721 118.341 24.439 94.9643C64.1523 47.864 137.376 58.5339 141.084 59.1357C192.364 67.3985 193.25 97.7648 267.406 144.402C349.888 196.34 396.853 189.003 417.095 235.409C426.376 256.633 428.661 286.004 417.305 309.334H417.328Z" fill="#DFEAF7"/>
<path d="M153.07 325.952L170.28 249.319C174.594 230.108 187.56 213.907 205.469 205.413L256.236 181.295L308.332 202.797C329.273 211.453 344.571 229.784 349.235 251.818L364.882 325.952H153.07Z" fill="#3D71F2"/>
<path d="M224.055 301.465C224.055 301.465 237.627 283.805 244.156 284.916C250.686 286.027 262.742 307.181 262.742 307.181H316.587L318.103 293.665C318.103 293.665 352.546 299.868 364.859 325.975H230.095L224.031 301.465H224.055Z" fill="#FFB0B3"/>
<path d="M318.126 295.285C317.287 295.285 316.564 294.66 316.494 293.804L311.807 248.185C311.713 247.282 312.366 246.472 313.276 246.379C314.185 246.31 315.001 246.935 315.095 247.837L319.782 293.456C319.875 294.359 319.222 295.169 318.313 295.262C318.266 295.262 318.196 295.262 318.15 295.262L318.126 295.285Z" fill="#002D53"/>
<path d="M232.1 173.611V209.116C232.1 209.116 229.535 231.104 243.737 229.113C257.938 227.146 273.003 188.216 273.003 188.216L270.671 153.683L232.123 173.588L232.1 173.611Z" fill="#FFB0B3"/>
<path d="M272.49 180.416L232.124 206.107V173.588L270.624 153.683L272.49 180.416Z" fill="#FF7A72"/>
<path d="M272.798 148.685C283.384 121.541 276.464 93.5818 257.343 86.236C238.222 78.8901 214.14 94.9395 203.554 122.083C192.969 149.227 199.888 177.186 219.009 184.532C238.13 191.878 262.212 175.828 272.798 148.685Z" fill="#FFB3AE"/>
<path d="M277.503 128.918C277.503 128.918 257.752 118.179 246.955 93.2052C246.955 93.2052 196.421 132.459 184.482 108.412C172.565 84.3638 202.088 65.3848 205.492 81.7253C205.492 81.7253 232.706 37.9579 277.503 67.0744C322.277 96.1909 277.503 128.895 277.503 128.895V128.918Z" fill="#002D53"/>
<path d="M284.826 140.699C281.957 148.661 275.824 153.753 271.137 152.086C266.45 150.42 264.981 142.62 267.849 134.658C270.717 126.696 276.85 121.604 281.538 123.271C286.225 124.937 287.694 132.737 284.826 140.699Z" fill="#FFB3AE"/>
<path d="M109.439 260.961H61.1674V325.975H109.439V260.961Z" fill="#6190E5"/>
<path d="M42.8615 293.688C42.8615 299.358 47.5021 303.941 53.2154 303.941C56.4335 303.941 59.3018 302.483 61.1907 300.215V314.009C58.7421 314.981 56.037 315.491 53.2154 315.491C41.0659 315.491 31.225 305.746 31.225 293.711C31.225 281.676 41.0659 271.885 53.2154 271.885C56.0137 271.885 58.7188 272.394 61.1907 273.367V287.161C59.3018 284.893 56.4335 283.435 53.2154 283.435C47.5021 283.435 42.8615 288.017 42.8615 293.711V293.688Z" fill="#6190E5"/>
<path d="M74.716 212.356C80.6625 203.353 89.2908 196.085 93.6515 186.225C99.6447 172.685 96.4965 156.738 101.067 142.666C107.69 122.252 128.678 110.217 140.967 92.5572C154.353 73.3467 156.428 46.9382 146.237 25.8762C141.573 16.271 134.251 7.56843 124.48 3.14772C112.89 -2.08307 98.7585 -0.624929 87.845 5.90198C76.9314 12.4289 69.2126 23.608 65.7846 35.7823C57.3196 65.8014 73.69 98.1583 67.1838 128.663C63.3127 146.809 51.6762 162.571 47.7585 180.694C44.3306 196.455 47.5487 213.328 55.7572 227.146C58.1591 231.196 64.8518 243.995 68.4197 235.2C69.7723 231.867 68.9328 227.748 69.679 224.253C70.5651 220.017 72.3374 215.944 74.716 212.356Z" fill="#F1F3F6"/>
<path d="M411.894 325.952H34.3964V343.612H411.894V325.952Z" fill="#D18C7E"/>
<path d="M386.476 343.635C317.73 392.61 169.65 402.123 80.8258 343.635H386.476Z" fill="#BC7F72"/>
<path d="M237.44 317.481C238.583 322.156 235.575 325.975 230.724 325.975H118.86C114.01 325.975 109.113 322.156 107.97 317.481L87.5652 234.876C86.4225 230.201 89.4308 226.382 94.2812 226.382H206.145C210.996 226.382 215.893 230.201 217.036 234.876L237.44 317.481Z" fill="white"/>
<path d="M173.498 277.347C174.734 284.106 170.233 289.568 163.447 289.568C156.661 289.568 150.108 284.106 148.872 277.347C147.637 270.589 152.137 265.127 158.923 265.127C165.709 265.127 172.262 270.589 173.498 277.347Z" fill="#DFEAF7"/>
</g>
<defs>
<clipPath id="clip0_1_255">
<rect width="425" height="384" fill="white"/>
</clipPath>
</defs>
</svg>
